<svg width="670" height="160" viewBox="0 0 670 160" fill="none" xmlns="http://www.w3.org/2000/svg">
<path d="M159.923 79.9872C159.923 95.7961 155.235 111.25 146.452 124.395C137.669 137.539 125.186 147.784 110.58 153.834C95.9749 159.884 79.9035 161.467 64.3983 158.382C48.8932 155.298 34.6509 147.686 23.4723 136.507C12.2938 125.328 4.68108 111.086 1.59692 95.581C-1.48723 80.0759 0.0956681 64.0044 6.14546 49.3989C12.1953 34.7935 22.4402 22.3099 35.5848 13.527C48.7294 4.74406 64.1832 0.0561829 79.9921 0.0561829C101.191 0.0561829 121.522 8.47747 136.512 23.4674C151.502 38.4574 159.923 58.7882 159.923 79.9872Z" fill="#FDB913"/>
<path d="M125.79 84.1906C123.895 74.1852 118.446 70.4006 115.519 68.3577C112.884 66.5292 109.901 63.2911 110.279 58.1428C111.326 58.0969 112.143 57.8619 112.179 57.4022C112.261 56.2582 113.4 44.3579 113.711 41.1249C115.192 41.319 116.433 41.4773 116.714 41.5029H116.816C117.981 41.5029 118.834 39.9706 120.657 34.5976C122.108 30.3483 122.276 24.8935 122.011 23.9793C121.883 23.5299 121.704 22.9119 112.501 20.4041L112.138 19.1017C112.101 18.9659 112.026 18.843 111.924 18.7466C111.821 18.6502 111.694 18.584 111.556 18.5552C111.142 18.4684 101.341 16.4357 99.4563 16.3335C98.0109 16.2671 95.6768 17.1252 94.405 17.6563C93.8943 16.1752 92.2752 13.601 86.9635 13.0597C82.6069 12.6255 77.3871 15.6134 76.1154 17.2937C74.8436 18.974 73.6281 23.4226 73.6281 26.6658C73.6653 27.8835 73.9394 29.0822 74.435 30.195C74.4476 30.2409 74.4647 30.2854 74.4861 30.3278C75.2505 32.1203 76.4221 33.71 77.9079 34.9707C79.3938 36.2314 81.1531 37.1284 83.0461 37.5906C87.4896 38.6121 89.7113 37.0134 90.6766 35.8898C91.5142 36.8143 92.9903 38.3107 94.2007 38.8777C95.876 39.6693 104.875 41.3037 105.897 41.4926C106.002 41.5107 106.11 41.5069 106.213 41.4814C106.317 41.4559 106.415 41.4093 106.499 41.3445L107.122 40.8644C106.775 44.4396 105.723 55.2367 105.626 56.8047C105.595 57.3154 106.545 57.7342 107.73 57.959C107.383 62.9438 109.605 67.3566 114.058 70.4568C117.7 73.0105 121.719 76.3763 123.282 84.6656C125.719 97.5261 122.654 107.7 115.836 109.411C111.336 110.535 108.931 105.085 107.031 99.8857C106.731 98.9823 106.371 98.1001 105.953 97.2452C104.931 95.3912 103.338 94.3902 101.826 94.6251C100.595 94.8141 99.6963 95.7743 99.4103 97.1788C99.3147 97.7113 99.2702 98.2518 99.2775 98.7927C97.7453 97.1737 96.1211 96.9694 94.9668 97.4444C93.3376 98.1135 92.6072 100.054 93.1844 102.164C93.2559 102.414 93.3631 102.741 93.4857 103.129C94.165 105.172 95.4265 109.054 94.1497 112.358C93.5981 113.788 92.3263 114.222 90.3753 114.258C90.3242 111.127 89.2517 107.297 87.1474 105.708C86.6768 105.328 86.1225 105.064 85.5302 104.94C84.938 104.816 84.3246 104.834 83.7408 104.993C83.659 101.796 82.4537 99.1349 80.7887 98.568C80.3222 98.4192 79.8197 98.4275 79.3584 98.5917C78.8971 98.756 78.5025 99.067 78.235 99.4771C77.0296 101.086 76.8815 105.698 77.1624 109.901C76.6823 110.147 76.1409 110.412 75.5893 110.637C73.9856 111.326 71.151 110.77 68.1529 110.182C64.6595 109.503 60.7063 108.727 57.0852 109.534C54.5314 110.095 52.7745 111.515 52.2127 113.436C51.999 114.167 51.9878 114.943 52.1803 115.681C52.3728 116.418 52.7617 117.09 53.3057 117.624C55.0218 119.35 57.9841 119.774 61.4418 118.788C65.114 117.741 67.7086 118.686 68.3725 120.167C69.0365 121.648 67.8005 123.579 65.2621 125.193C58.0658 129.759 47.4321 127.496 43.3002 123.926C38.4227 119.738 38.4227 107.532 38.4227 102.317C38.4227 96.2595 36.8904 89.8292 36.2878 87.6381C37.0794 87.2653 37.6463 86.821 37.5238 86.4583C37.2326 85.6207 34.873 77.1833 34.0712 74.318C35.0832 74.179 36.0632 73.8644 36.9671 73.3885C37.6106 73.0871 39.5208 71.9941 41.3492 70.9318C42.7282 70.135 44.0255 69.3996 44.6435 69.0574C45.3585 68.6794 45.8437 67.709 46.1757 66.7999C48.3668 66.7806 50.5054 66.1268 52.3327 64.9176C54.16 63.7085 55.5979 61.9957 56.4723 59.9866C57.7798 56.9937 57.9075 53.9241 56.84 51.3397C55.7164 48.6226 53.2648 46.4571 49.8071 45.0832C42.6567 42.2588 37.3041 48.4234 36.3848 49.5726C35.6187 49.4744 34.8404 49.5856 34.1324 49.8943C33.3663 50.2672 32.3346 50.7524 31.2263 51.2733C28.7186 52.4481 25.884 53.7811 24.7808 54.4144C24.1697 54.8282 23.6698 55.386 23.3251 56.0386C23.1283 56.3944 22.8805 56.7196 22.5897 57.0039C22.3752 57.1775 21.8746 57.5453 21.2975 57.9692C19.2545 59.4605 17.5385 60.7476 17.0022 61.4422C16.1237 62.5863 15.1584 67.5711 17.3597 71.6213C19.4895 75.5285 22.8604 77.3569 25.5009 77.3569C25.8439 77.3566 26.1861 77.3224 26.5224 77.2548C27.3367 77.0615 28.1229 76.7646 28.8616 76.3712C29.4183 78.2201 32.0129 86.8056 32.4674 88.0825C32.5849 88.4043 33.1416 88.4707 33.8413 88.3736C34.4082 90.5341 35.8843 96.6936 35.8843 102.317C35.8843 111.51 36.5738 121.5 41.6506 125.862C46.5077 130.035 58.3773 132.614 66.6769 127.348C71.1357 124.519 71.7026 121.245 70.7628 119.12C69.44 116.183 65.3438 115.034 60.7931 116.332C58.3007 117.047 56.1965 116.842 55.175 115.821C54.951 115.613 54.7897 115.346 54.7093 115.051C54.629 114.756 54.6329 114.444 54.7204 114.151C55.0115 113.165 56.1199 112.368 57.6929 112.021C60.7931 111.331 64.4705 112.052 67.7188 112.685C71.2633 113.38 74.3227 113.977 76.6517 112.976C76.9326 112.859 77.2033 112.736 77.4637 112.613C77.5965 113.757 77.7498 114.794 77.9183 115.642C78.1124 116.664 78.3831 118.329 78.6895 120.387C78.3575 128.86 78.0817 141.235 78.1788 147.298C78.2247 150.005 78.6436 153.427 80.3801 154.367C80.6603 154.52 80.9747 154.601 81.2943 154.601C81.6676 154.6 82.0326 154.492 82.3464 154.29C84.4966 152.921 84.4507 147.609 84.3332 145.388C84.1493 141.991 82.4435 128.365 81.2688 120.249V119.703C81.376 119.84 81.4935 119.983 81.6212 120.121C82.0444 120.591 82.5747 120.951 83.1668 121.171C83.759 121.392 84.3957 121.466 85.0227 121.388C87.1116 121.148 88.9452 119.488 89.7675 118.048C89.9806 117.659 90.1339 117.241 90.2221 116.807C92.9034 116.807 95.4929 116.163 96.6114 113.272C98.2152 109.12 96.7136 104.533 95.9883 102.327C95.8811 101.99 95.784 101.704 95.7227 101.479C95.4572 100.514 95.7227 99.9164 96.019 99.7989C96.4225 99.6355 97.4746 100.095 98.5727 102.041C99.3081 103.354 100.105 105.06 100.105 105.075C100.235 105.357 100.464 105.581 100.748 105.707C101.031 105.832 101.351 105.85 101.647 105.757C101.944 105.664 102.196 105.466 102.356 105.2C102.517 104.934 102.575 104.619 102.521 104.314C102.27 102.996 101.693 99.2422 102.01 97.6742C102.056 97.424 102.173 97.1635 102.311 97.1635C102.536 97.1226 103.205 97.4086 103.808 98.5016C104.157 99.2406 104.462 99.9996 104.722 100.774C106.372 105.289 109.441 113.681 116.546 111.903C124.743 109.861 128.584 98.4608 125.882 84.206M77.3412 18.2284C77.443 18.1013 77.554 17.9818 77.6731 17.8708C77.4158 20.0223 77.0355 22.1573 76.5342 24.2653C76.2124 25.3787 75.6966 26.7271 75.2573 27.7997C75.1965 27.4298 75.1641 27.0559 75.1603 26.6811C75.1603 23.5043 76.3146 19.5972 77.3412 18.2284ZM105.835 39.9196C101.892 39.2045 95.9526 38.0094 94.8545 37.4935C93.6491 36.9266 91.79 34.8888 91.1874 34.1533C91.1038 34.0535 90.9963 33.9765 90.875 33.9295C90.7537 33.8824 90.6224 33.8668 90.4934 33.8842C90.3645 33.9015 90.242 33.9512 90.1374 34.0286C90.0328 34.106 89.9494 34.2087 89.8952 34.3269C89.8441 34.4495 88.4855 37.2688 83.3883 36.0992C81.8036 35.6556 80.3268 34.8913 79.0494 33.8538C77.7721 32.8162 76.7213 31.5275 75.9622 30.0674C76.7436 28.3162 77.4256 26.5223 78.0051 24.6944C78.6895 22.3552 79.3484 16.9055 79.3739 16.6757C81.3403 15.5214 84.2975 14.3723 86.8154 14.6327C92.7911 15.2252 93.0822 18.6319 93.0924 18.7953C93.0975 18.9202 93.1332 19.0419 93.1965 19.1496C93.2597 19.2574 93.3485 19.348 93.455 19.4133C93.5634 19.4787 93.6862 19.5167 93.8126 19.5238C93.939 19.5309 94.0652 19.507 94.1803 19.4541C95.1711 18.9996 98.0364 17.83 99.3745 17.8964C100.713 17.9628 107.174 19.2447 110.79 19.9904L111.142 21.2673C111.179 21.3878 111.244 21.4975 111.333 21.5866C111.423 21.6757 111.532 21.7414 111.653 21.778C115.407 22.7995 119.585 24.0764 120.535 24.5973C120.601 27.823 120.144 31.0382 119.181 34.1175C117.991 37.6161 117.138 39.5825 116.689 39.9706C115.667 39.8634 109.911 39.0871 107.684 38.7806H107.577C107.408 38.7782 107.244 38.8341 107.112 38.9389L105.835 39.9196ZM40.8283 47.5296C43.576 45.7522 46.3851 45.41 49.1789 46.5081C52.3046 47.7441 54.3833 49.5726 55.3589 51.9271C56.2629 54.1233 56.1403 56.7689 55.0013 59.3788C54.2634 61.0421 53.082 62.4704 51.5867 63.5072C50.0913 64.5441 48.3395 65.1496 46.523 65.2575C47.0338 62.6629 46.9929 59.0775 45.333 56.1918C43.6759 53.3373 41.0911 51.1365 38.009 49.9556C38.8397 49.0283 39.7874 48.2128 40.8283 47.5296ZM26.1649 75.7583C24.0402 76.1975 20.6795 74.6398 18.6417 70.896C16.7008 67.3208 17.6917 62.9847 18.1309 62.382C18.5701 61.7793 20.8787 60.1143 22.1147 59.2103C22.7378 58.7557 23.2281 58.3931 23.4733 58.1888C23.8965 57.8042 24.2552 57.3541 24.5356 56.8558C24.7576 56.4223 25.0713 56.0424 25.4549 55.7423C26.4764 55.1397 29.311 53.8219 31.7881 52.6779C32.9016 52.1671 33.9435 51.6564 34.7147 51.2989C35.0353 51.1532 35.384 51.0799 35.7362 51.0844C38.0907 51.0844 41.9417 53.4797 43.9591 56.9783C45.4913 59.6444 45.4913 63.332 44.7712 65.8244C44.051 68.3168 44.7712 65.8244 44.7712 65.855C44.3881 67.1676 43.9642 67.6426 43.8467 67.7039C43.2032 68.0461 41.8906 68.802 40.5014 69.6039C38.7751 70.6253 36.8189 71.7285 36.2418 71.9992C35.159 72.51 34.1988 72.9135 33.1467 72.796C32.2682 72.6938 31.1344 73.3323 29.7043 74.1341C28.5296 74.7879 27.2017 75.5336 26.1291 75.7532M81.7182 145.561C81.8868 148.759 81.5395 150.592 81.2075 151.496C80.8084 150.132 80.6189 148.714 80.6457 147.293C80.6048 144.576 80.6457 140.582 80.7121 136.245C81.2228 140.459 81.6161 144.044 81.6978 145.561M79.5884 108.344C79.4607 105.029 79.6753 102.153 80.1451 101.193C80.569 101.73 81.2024 103.236 81.1666 105.489C81.1666 106.479 80.6303 107.424 79.5782 108.333M87.4538 116.807C87.1545 117.328 86.7496 117.782 86.2651 118.138C85.7805 118.494 85.2269 118.745 84.6397 118.875C84.4108 118.91 84.1769 118.886 83.9599 118.805C83.7428 118.725 83.5497 118.591 83.3985 118.415C83.1738 118.17 82.8214 117.716 82.9797 117.394C83.1381 117.072 83.9502 116.556 85.2168 116.556H85.5437C86.0289 116.587 86.5243 116.628 87.0197 116.669L87.5305 116.71C87.5154 116.743 87.4984 116.775 87.4794 116.807M87.2546 114.12C86.7439 114.079 86.2332 114.038 85.7224 114.008C84.9501 113.922 84.1684 113.995 83.4248 114.22C82.6812 114.446 81.9911 114.82 81.3964 115.32C81.4577 114.192 81.519 113.277 81.5803 112.685C81.8408 109.958 83.1125 108.037 84.2106 107.578C84.3707 107.502 84.5445 107.46 84.7214 107.455C85.04 107.469 85.3451 107.587 85.5896 107.792C87.0044 108.859 87.7245 111.878 87.8062 114.192L87.2291 114.146M25.6184 56.2939C25.6786 56.1027 25.8109 55.9424 25.9873 55.847C26.1637 55.7517 26.3703 55.7288 26.5633 55.7832C26.7778 55.8394 31.9056 57.2848 34.2806 61.6312C36.6146 65.8959 36.0988 71.0186 36.0733 71.2331C36.0531 71.421 35.9643 71.5947 35.8238 71.721C35.6833 71.8474 35.5012 71.9173 35.3123 71.9175H35.2407C35.039 71.8957 34.8542 71.7947 34.7268 71.6367C34.5995 71.4787 34.54 71.2766 34.5615 71.0748C34.5615 71.0237 35.0467 66.2023 32.9475 62.3667C30.8484 58.531 26.2159 57.2592 26.1649 57.2592C25.9693 57.2055 25.803 57.0764 25.7025 56.9002C25.6019 56.724 25.5754 56.5152 25.6286 56.3195M26.267 66.2381C28.1466 69.5477 28.0802 73.8124 28.075 73.9911C28.0724 74.1921 27.9903 74.3838 27.8468 74.5245C27.7032 74.6651 27.5099 74.7433 27.3089 74.7419C27.2063 74.7393 27.1052 74.7162 27.0116 74.6741C26.918 74.6319 26.8338 74.5714 26.7639 74.4963C26.694 74.4211 26.6397 74.3328 26.6044 74.2364C26.5691 74.14 26.5534 74.0375 26.5581 73.9349C26.5581 73.8941 26.6143 69.9052 24.9493 66.9684C23.3405 64.1389 19.8981 63.2349 19.8674 63.2247C19.7632 63.2071 19.6636 63.1682 19.5752 63.1103C19.4867 63.0524 19.4111 62.9768 19.3533 62.8882C19.2955 62.7997 19.2566 62.7001 19.2391 62.5958C19.2216 62.4915 19.2259 62.3848 19.2517 62.2822C19.2776 62.1797 19.3243 62.0836 19.3891 62C19.4539 61.9164 19.5352 61.8471 19.6281 61.7965C19.721 61.7459 19.8233 61.7151 19.9286 61.706C20.034 61.6969 20.1401 61.7096 20.2403 61.7435C20.4037 61.7844 24.3262 62.8008 26.2823 66.2125M94.2416 20.9404C94.2379 23.1021 94.0843 25.2609 93.7819 27.4013C93.4999 29.1813 92.9972 30.9193 92.2855 32.5751C92.224 32.709 92.1254 32.8226 92.0014 32.9022C91.8774 32.9819 91.7331 33.0243 91.5857 33.0246C91.4784 33.0246 91.3722 33.002 91.2742 32.9582C91.1815 32.9168 91.0979 32.8574 91.0284 32.7835C90.9588 32.7096 90.9047 32.6226 90.869 32.5275C90.8334 32.4325 90.817 32.3313 90.8208 32.2299C90.8246 32.1284 90.8485 32.0288 90.8911 31.9367C91.5413 30.4061 92.0043 28.8027 92.2701 27.1612C92.5572 25.1 92.704 23.0216 92.7094 20.9404C92.708 20.8398 92.7265 20.7399 92.7638 20.6464C92.801 20.553 92.8563 20.4678 92.9265 20.3957C92.9967 20.3236 93.0804 20.266 93.1729 20.2263C93.2653 20.1865 93.3647 20.1654 93.4653 20.1641C93.6672 20.1654 93.8605 20.2458 94.0037 20.3881C94.147 20.5304 94.2287 20.7232 94.2314 20.9251M99.1345 27.4421C98.7259 31.0939 96.5808 36.1248 96.4991 36.3444C96.4408 36.4833 96.3429 36.602 96.2175 36.6856C96.0921 36.7692 95.9449 36.8139 95.7942 36.8143C95.6972 36.8178 95.6004 36.804 95.5082 36.7734C95.4142 36.7334 95.3291 36.6751 95.2577 36.6019C95.1864 36.5287 95.1304 36.4421 95.0928 36.347C95.0553 36.252 95.037 36.1504 95.0391 36.0483C95.0411 35.9461 95.0634 35.8454 95.1047 35.7519C95.1047 35.7008 97.2447 30.7058 97.6278 27.2736C97.9646 24.7532 98.1097 22.211 98.0619 19.6687C98.0484 19.4655 98.1161 19.2652 98.2502 19.112C98.3843 18.9587 98.5738 18.865 98.777 18.8515C98.9802 18.8379 99.1804 18.9056 99.3337 19.0397C99.4869 19.1738 99.5806 19.3633 99.5942 19.5665C99.5942 19.6687 99.7576 22.1202 99.1651 27.4421M107.649 37.1871C108.439 35.2134 109.126 33.2001 109.707 31.1552C110.326 28.6624 110.702 26.1156 110.83 23.5503C110.842 23.3475 110.933 23.1574 111.082 23.0201C111.232 22.8828 111.429 22.8092 111.632 22.8148C111.733 22.8194 111.832 22.8438 111.923 22.8866C112.014 22.9294 112.096 22.9898 112.164 23.0643C112.232 23.1387 112.284 23.2259 112.318 23.3207C112.352 23.4155 112.368 23.5161 112.363 23.6167C112.238 26.3071 111.843 28.9781 111.183 31.5894C110.581 33.6953 109.865 35.7669 109.038 37.7949C108.981 37.9346 108.883 38.0541 108.757 38.1378C108.632 38.2216 108.484 38.2658 108.333 38.2648C108.232 38.2635 108.131 38.2444 108.037 38.2086C107.942 38.1691 107.857 38.1111 107.785 38.0381C107.713 37.9652 107.656 37.8786 107.618 37.7835C107.58 37.6884 107.561 37.5867 107.563 37.4843C107.565 37.3819 107.587 37.2809 107.628 37.1871M47.3249 57.7547C46.8142 56.1509 45.522 55.3848 45.4403 53.8424C45.3585 52.3868 48.2595 52.9026 49.7152 52.0446C51.1708 51.1865 50.5732 50.0016 52.1105 50.211C53.6479 50.4204 55.3793 54.4502 53.9083 58.7506C53.55 59.8524 52.9707 60.8696 52.2058 61.7399C51.4409 62.6101 50.5065 63.3152 49.4598 63.8121C48.52 64.3688 47.5752 64.2819 47.662 62.571C47.7488 60.86 47.8356 59.3584 47.3249 57.7547ZM36.7985 64.3024C36.4308 62.4892 34.8015 61.2124 35.3684 60.3339C36.1958 59.057 38.1264 60.8446 39.5565 60.0939C40.9866 59.3431 41.0326 57.7444 41.8497 57.6014C42.6669 57.4584 43.4535 57.7598 43.9336 61.2124C44.4137 64.665 43.9336 66.4219 43.239 67.137C42.5444 67.852 38.9692 69.4557 38.1315 69.8899C37.2939 70.324 36.7985 70.2065 36.8189 69.2004C36.8394 68.1942 37.1816 66.1104 36.8189 64.3024M28.7033 70.5385C28.4836 68.7867 27.9218 66.4934 27.1149 65.4924C26.3079 64.4913 26.8901 63.8529 27.8963 64.0623C28.3265 64.1877 28.7883 64.1444 29.1877 63.9414C29.5872 63.7384 29.8943 63.3908 30.0465 62.9693C30.2457 62.4586 29.6481 61.5086 30.5828 61.243C31.3898 61.0183 32.9782 64.1696 33.3612 66.4219C33.7443 68.6743 34.7045 70.5896 31.972 72.1269C29.2395 73.6643 28.8718 71.9124 28.7033 70.5385ZM88.2966 34.5466C87.1474 35.5987 84.1596 35.6549 81.7131 34.5466C79.19 33.3974 77.3667 31.0378 77.5608 29.766C77.8519 27.8252 78.7099 27.4319 79.6344 27.8354C81.044 28.4432 80.0838 30.2206 83.9195 29.9856C87.7552 29.7507 88.4906 27.7384 89.6398 28.4074C90.789 29.0765 89.4457 33.4893 88.2966 34.5363M106.862 35.5119C105.81 38.0656 105.611 38.6734 103.603 38.4742C101.188 38.2341 99.8342 37.9992 98.3633 36.9419C97.255 36.1656 99.2826 30.9509 100.345 30.2461C101.535 29.4545 101.433 32.6926 104.308 30.8692C107.184 29.0459 106.99 25.7618 108.302 26.5586C109.354 27.1715 107.919 32.9224 106.862 35.4914M112.291 32.4525C112.914 30.3789 112.659 29.2502 113.221 28.7599C114.038 28.055 115.238 30.384 116.484 29.955C117.731 29.526 118.206 28.1316 119.069 28.6373C119.932 29.1429 117.424 35.9562 116.673 37.4527C115.836 39.1279 110.228 38.6682 110.728 37.039C111.51 34.5159 111.75 34.2861 112.291 32.4423" fill="#393524"/>
<path d="M198.772 50.1528C198.804 51.0585 198.626 51.9593 198.251 52.7847C197.877 53.61 197.316 54.3375 196.614 54.9102C195.044 56.1425 193.087 56.7742 191.093 56.6918C189.486 56.6763 187.892 56.3985 186.375 55.8695C184.81 55.3575 183.348 54.5756 182.053 53.5593L184.167 50.1332C186.592 51.9768 188.946 52.8969 191.23 52.8937C192.068 52.9411 192.898 52.6992 193.579 52.2085C193.85 52.007 194.07 51.7439 194.22 51.441C194.37 51.1381 194.445 50.8039 194.441 50.466C194.441 49.4219 193.057 48.4821 190.29 47.6468C190.08 47.5685 189.923 47.5196 189.801 47.4902C185.464 46.3155 183.298 44.3577 183.301 41.6168C183.275 40.7193 183.466 39.8287 183.858 39.0209C184.25 38.213 184.831 37.5118 185.552 36.9769C187.053 35.8153 189.006 35.2345 191.411 35.2345C193.842 35.2442 196.215 35.9806 198.224 37.3489L196.58 40.5841C194.947 39.4884 193.024 38.9071 191.059 38.9151C190.175 38.8779 189.297 39.0737 188.513 39.4829C188.206 39.6458 187.952 39.8921 187.778 40.1934C187.605 40.4947 187.521 40.8388 187.535 41.1861C187.532 41.506 187.629 41.8187 187.811 42.0815C187.993 42.3444 188.252 42.5445 188.553 42.6545C189.179 42.9464 189.836 43.1696 190.51 43.3201C191.357 43.5306 192.106 43.741 192.762 43.9466C193.418 44.1522 194.044 44.392 194.661 44.6514C195.345 44.9581 196 45.325 196.619 45.7478C198.028 46.6875 198.733 48.1558 198.733 50.1528M217.42 46.8245V35.5526H221.825V56.3834H217.42V52.5853C216.739 53.8279 215.736 54.8646 214.517 55.587C213.298 56.3094 211.907 56.691 210.49 56.6918C208.14 56.6918 206.241 55.9756 204.792 54.5431C203.344 53.1107 202.619 51.0354 202.619 48.3174V35.5526H207.024V46.9812C207.024 50.8184 208.617 52.7371 211.801 52.7371C213.264 52.7585 214.679 52.2191 215.756 51.2296C216.878 50.2246 217.44 48.7562 217.44 46.8245M244.795 53.5838C243.769 54.6067 242.546 55.4099 241.199 55.9443C239.853 56.4787 238.412 56.733 236.964 56.6918C235.516 56.7336 234.074 56.4795 232.728 55.9451C231.381 55.4107 230.158 54.6072 229.133 53.5838C228.113 52.5986 227.307 51.414 226.764 50.1038C226.222 48.7936 225.955 47.3858 225.981 45.968C225.952 44.5516 226.216 43.1444 226.754 41.8342C227.293 40.524 228.096 39.3387 229.113 38.3522C230.138 37.3282 231.361 36.5239 232.708 35.9887C234.054 35.4535 235.496 35.1985 236.944 35.2394C238.392 35.1991 239.834 35.4543 241.18 35.9895C242.527 36.5247 243.75 37.3286 244.775 38.3522C245.795 39.3378 246.601 40.5224 247.143 41.8325C247.685 43.1427 247.952 44.5503 247.927 45.968C247.955 47.385 247.691 48.7926 247.152 50.1034C246.613 51.4143 245.811 52.6005 244.795 53.5887M232.245 50.8625C233.514 52.0805 235.205 52.7607 236.964 52.7607C238.723 52.7607 240.413 52.0805 241.682 50.8625C242.304 50.2125 242.788 49.4444 243.108 48.6037C243.427 47.763 243.575 46.8668 243.542 45.968C243.575 45.0692 243.428 44.1729 243.108 43.3322C242.789 42.4915 242.304 41.7234 241.682 41.0736C240.415 39.8521 238.724 39.1697 236.964 39.1697C235.204 39.1697 233.512 39.8521 232.245 41.0736C231.623 41.7228 231.137 42.4907 230.818 43.3316C230.498 44.1725 230.351 45.0691 230.386 45.968C230.351 46.8669 230.499 47.7634 230.818 48.6043C231.138 49.4451 231.623 50.2131 232.245 50.8625ZM256.502 45.1017V56.359H252.097V35.5477H256.502V39.3458C257.123 38.0773 258.112 37.0262 259.341 36.3308C260.583 35.6078 261.996 35.2293 263.433 35.2345C266.722 35.2345 268.954 36.5919 270.129 39.3067C272.194 36.5951 274.772 35.2377 277.862 35.2345C280.211 35.2345 282.11 35.9523 283.559 37.388C285.008 38.8237 285.719 40.899 285.693 43.6138V56.3785H281.288V44.9451C281.288 41.1078 279.696 39.1892 276.511 39.1892C275.074 39.1653 273.679 39.6744 272.595 40.6184C271.538 41.5744 270.977 42.9644 270.912 44.7884V56.3785H266.507V44.9451C266.507 42.9612 266.154 41.5059 265.449 40.5792C264.745 39.6542 263.639 39.1892 262.121 39.1892C260.659 39.1712 259.245 39.7102 258.167 40.6967C257.044 41.7049 256.483 43.1733 256.483 45.1017M310.479 47.8817H294.151C294.193 48.6109 294.402 49.3208 294.761 49.9564C295.121 50.592 295.622 51.1365 296.226 51.5477C297.506 52.474 299.051 52.9601 300.631 52.9328C303.245 52.9328 305.227 52.1155 306.583 50.4856L309.089 53.2314C306.847 55.5514 303.923 56.7114 300.318 56.7114C298.941 56.743 297.571 56.5021 296.287 56.0023C295.004 55.5025 293.832 54.7537 292.839 53.7992C290.793 51.8414 289.768 49.231 289.765 45.968C289.762 42.705 290.806 40.0947 292.898 38.1369C294.886 36.2443 297.534 35.2028 300.278 35.2345C302.921 35.1668 305.495 36.0805 307.503 37.7992C309.49 39.5122 310.482 41.8681 310.479 44.8668V47.8817ZM294.151 44.4556H306.093C306.093 42.7034 305.545 41.3623 304.449 40.4226C303.315 39.4589 301.864 38.9497 300.376 38.9934C298.81 38.9809 297.285 39.4983 296.05 40.4617C295.432 40.9201 294.934 41.5217 294.6 42.2149C294.266 42.908 294.105 43.6719 294.131 44.4409M319.078 45.1017V56.359H314.673V35.5477H319.078V39.3458C319.764 38.0917 320.779 37.049 322.015 36.3308C323.228 35.6079 324.616 35.2289 326.028 35.2345C328.378 35.2345 330.277 35.9523 331.725 37.388C333.174 38.8237 333.899 40.899 333.899 43.6138V56.3785H329.494V44.9451C329.494 41.1078 327.901 39.1892 324.717 39.1892C323.255 39.1702 321.84 39.7093 320.762 40.6967C319.643 41.7049 319.081 43.1733 319.078 45.1017ZM195.796 72.1632C198.25 72.1632 200.436 73.1878 202.355 75.2369C204.274 77.2861 205.233 79.8622 205.233 82.9653C205.32 85.8389 204.288 88.6342 202.355 90.7621C200.436 92.8472 198.191 93.8897 195.62 93.8897C194.412 93.9198 193.214 93.6536 192.133 93.1144C191.051 92.5752 190.117 91.7793 189.414 90.7964V101.178H183.541V72.5107H189.414V74.8453C190.235 73.9868 191.223 73.3048 192.317 72.8411C193.411 72.3774 194.589 72.1417 195.777 72.1485M189.336 83.068C189.272 84.5941 189.782 86.0887 190.765 87.2577C191.185 87.7687 191.715 88.1794 192.314 88.4596C192.914 88.7399 193.568 88.8828 194.23 88.8778C194.905 88.8765 195.572 88.7314 196.186 88.452C196.801 88.1727 197.349 87.7655 197.793 87.2577C198.83 86.1199 199.378 84.6207 199.32 83.0827C199.373 81.5279 198.85 80.0084 197.852 78.8148C197.425 78.2792 196.883 77.8464 196.266 77.5482C195.65 77.25 194.974 77.0941 194.289 77.0919C193.613 77.088 192.946 77.2396 192.338 77.535C191.73 77.8303 191.199 78.2615 190.784 78.7952C189.808 80.0001 189.3 81.5179 189.355 83.068M229.955 83.0436C229.986 84.4792 229.72 85.9057 229.175 87.2339C228.629 88.562 227.815 89.7632 226.783 90.7621C225.736 91.7951 224.489 92.6049 223.12 93.1424C221.75 93.68 220.286 93.9342 218.815 93.8897C217.344 93.9337 215.88 93.6792 214.511 93.1416C213.141 92.6041 211.895 91.7946 210.847 90.7621C208.814 88.7054 207.675 85.9303 207.675 83.0387C207.675 80.1471 208.814 77.372 210.847 75.3152C211.891 74.2755 213.136 73.4597 214.506 72.9177C215.876 72.3758 217.342 72.119 218.815 72.1632C220.289 72.121 221.756 72.3805 223.127 72.9259C224.497 73.4713 225.741 74.2911 226.783 75.3348C227.814 76.3365 228.627 77.5395 229.173 78.8691C229.719 80.1987 229.985 81.6263 229.955 83.0631M213.588 83.0631C213.522 84.6037 214.047 86.111 215.056 87.2773C215.539 87.7892 216.122 88.1971 216.768 88.4759C217.415 88.7546 218.111 88.8984 218.815 88.8984C219.519 88.8984 220.215 88.7546 220.862 88.4759C221.508 88.1971 222.091 87.7892 222.574 87.2773C223.583 86.111 224.108 84.6037 224.042 83.0631C224.105 81.5187 223.58 80.0078 222.574 78.8343C222.095 78.3159 221.513 77.9023 220.866 77.6194C220.22 77.3365 219.521 77.1905 218.815 77.1905C218.109 77.1905 217.411 77.3365 216.764 77.6194C216.117 77.9023 215.535 78.3159 215.056 78.8343C214.05 80.0078 213.525 81.5187 213.588 83.0631ZM242.015 93.8897C239.522 93.8897 237.297 92.8341 235.339 90.723C233.372 88.5822 232.319 85.7585 232.402 82.8527C232.402 79.7202 233.355 77.1555 235.26 75.1586C236.103 74.2163 237.135 73.4624 238.289 72.9462C239.442 72.43 240.692 72.1632 241.956 72.1632C243.133 72.1243 244.304 72.3443 245.387 72.8078C246.469 73.2713 247.437 73.9668 248.221 74.8453V64.5229H254.094V93.5765H248.221V90.7964C247.505 91.7667 246.57 92.5531 245.491 93.0909C244.412 93.6287 243.22 93.9025 242.015 93.8897ZM238.315 83.0827C238.257 84.6207 238.805 86.1199 239.842 87.2577C240.286 87.7655 240.834 88.1727 241.449 88.452C242.063 88.7314 242.73 88.8765 243.405 88.8778C244.067 88.8828 244.721 88.7399 245.321 88.4596C245.92 88.1794 246.45 87.7687 246.87 87.2577C247.853 86.0887 248.363 84.5941 248.299 83.068C248.355 81.5179 247.847 80.0001 246.87 78.7952C246.456 78.2615 245.924 77.8303 245.316 77.535C244.709 77.2396 244.041 77.088 243.366 77.0919C242.681 77.0941 242.005 77.25 241.388 77.5482C240.772 77.8464 240.23 78.2792 239.803 78.8148C238.805 80.0084 238.282 81.5279 238.334 83.0827M269.111 88.682C271.068 88.682 272.83 87.7031 274.397 85.7453L277.881 89.6609C275.167 92.4801 272.23 93.8897 269.071 93.8897C266.116 93.9676 263.245 92.8955 261.064 90.8992C258.884 88.8957 257.795 86.2853 257.795 83.068C257.795 79.8507 258.897 77.2257 261.103 75.1928C263.224 73.209 266.03 72.1217 268.934 72.1583C270.514 72.1716 272.077 72.4907 273.535 73.098C275.082 73.7223 276.477 74.6702 277.627 75.8781L274.573 79.872C273.896 79.0664 273.046 78.424 272.086 77.9925C271.167 77.5625 270.165 77.3355 269.15 77.3268C267.681 77.3009 266.258 77.8406 265.175 78.8343C264.063 79.8426 263.508 81.2391 263.511 83.024C263.515 84.8088 264.069 86.1989 265.175 87.1941C266.245 88.166 267.646 88.6915 269.091 88.6624M299.055 93.5765H293.524V91.0313C292.007 92.9402 290.134 93.893 287.905 93.8897C285.856 93.9469 283.857 93.2503 282.286 91.9319C281.541 91.2989 280.949 90.5047 280.556 89.6093C280.162 88.7138 279.977 87.7407 280.015 86.7634C280.015 84.6033 280.799 82.9914 282.365 81.9276C283.931 80.8639 286.072 80.3271 288.786 80.3174H293.191V80.2293C293.191 77.9876 292.004 76.8651 289.628 76.8619C288.525 76.8791 287.432 77.0844 286.398 77.4688C285.366 77.8202 284.395 78.3305 283.52 78.9812L280.896 75.1782C283.646 73.1762 286.971 72.1199 290.372 72.1681C292.927 72.1681 295.015 72.8076 296.637 74.0867C298.259 75.3658 299.074 77.3872 299.084 80.1509L299.055 93.5765ZM293.142 85.5544V84.5364H289.462C287.112 84.5364 285.938 85.2657 285.938 86.7242C285.92 87.0621 285.988 87.399 286.135 87.7036C286.282 88.0082 286.504 88.2707 286.78 88.4666C287.499 88.916 288.341 89.1282 289.188 89.0735C290.194 89.0822 291.172 88.7356 291.948 88.0947C292.334 87.7918 292.644 87.4023 292.851 86.9575C293.059 86.5128 293.158 86.0254 293.142 85.5348M319.499 87.0228C319.532 87.975 319.342 88.9217 318.944 89.7875C318.546 90.6533 317.952 91.4144 317.208 92.0102C315.681 93.2681 313.743 93.8897 311.394 93.8897C309.728 93.8735 308.075 93.5893 306.499 93.0479C304.833 92.5058 303.281 91.6631 301.918 90.5615L304.502 86.8808C306.481 88.5026 308.953 89.402 311.511 89.4308C312.143 89.4629 312.77 89.3061 313.312 88.9806C313.518 88.8564 313.687 88.681 313.804 88.4716C313.92 88.2622 313.98 88.026 313.978 87.7863C313.952 87.4991 313.854 87.2231 313.693 86.9837C313.532 86.7443 313.314 86.549 313.058 86.4159C312.231 85.8987 311.334 85.5016 310.395 85.2363C309.235 84.8741 308.345 84.5609 307.733 84.2966C307.005 83.9774 306.304 83.5993 305.638 83.1659C304.877 82.7183 304.252 82.0715 303.832 81.2954C303.411 80.5192 303.209 79.6429 303.249 78.7609C303.232 77.8379 303.437 76.9242 303.845 76.0964C304.254 75.2687 304.855 74.551 305.599 74.0035C307.165 72.7799 309.188 72.1681 311.668 72.1681C314.148 72.1681 316.628 73.0034 319.107 74.674L316.915 78.5896C315.331 77.4157 313.423 76.7593 311.453 76.7101C309.638 76.7101 308.731 77.1996 308.731 78.1785C308.735 78.4545 308.819 78.7236 308.971 78.9536C309.124 79.1835 309.34 79.3647 309.593 79.4755C310.513 79.9208 311.469 80.2875 312.451 80.5719C313.782 80.9863 314.729 81.3126 315.29 81.5508C315.989 81.8436 316.663 82.1922 317.306 82.5933C318.771 83.4808 319.502 84.9622 319.499 87.0375M330.115 76.7444V86.176C330.072 86.8583 330.289 87.5314 330.722 88.0604C330.903 88.2737 331.128 88.4457 331.381 88.5647C331.635 88.6838 331.911 88.7471 332.19 88.7505C332.737 88.7455 333.275 88.6095 333.759 88.3541C334.242 88.0986 334.658 87.7311 334.97 87.2822L337.163 91.3935C335.336 93.0609 333.411 93.8946 331.388 93.8946C329.499 93.9247 327.676 93.2048 326.317 91.8928C324.924 90.5615 324.225 88.7489 324.222 86.455V76.7444H321.775V72.5107H324.222V66.2066H330.135V72.5107H335.225V76.7444H330.115ZM202.884 119.419V130.774H196.971V119.263C196.971 117.592 196.717 116.365 196.208 115.582C195.937 115.19 195.569 114.875 195.14 114.669C194.711 114.463 194.235 114.373 193.76 114.407C193.198 114.407 192.642 114.52 192.124 114.739C191.606 114.957 191.137 115.277 190.745 115.68C189.871 116.531 189.434 117.778 189.434 119.419V130.774H183.56V109.728H189.434V112.117C191.065 110.289 192.918 109.376 194.994 109.376C196.296 109.367 197.566 109.779 198.616 110.55C199.656 111.285 200.497 112.268 201.063 113.409C201.862 112.139 202.993 111.11 204.332 110.433C205.604 109.753 207.021 109.39 208.463 109.376C210.94 109.376 212.937 110.113 214.454 111.588C215.971 113.063 216.728 115.197 216.725 117.99V130.794H210.808V119.263C210.808 116.026 209.62 114.407 207.245 114.407C206.676 114.402 206.112 114.513 205.587 114.731C205.062 114.95 204.587 115.273 204.19 115.68C203.329 116.531 202.898 117.778 202.898 119.419M239.602 127.706C237.372 129.892 234.365 131.103 231.242 131.073C228.041 131.073 225.398 130.094 223.313 128.136C221.228 126.178 220.184 123.535 220.181 120.207C220.181 116.895 221.244 114.259 223.372 112.298C225.407 110.376 228.111 109.323 230.909 109.361C233.61 109.291 236.24 110.226 238.29 111.985C240.31 113.737 241.321 116.138 241.325 119.189V122.322H225.981C226.07 122.89 226.276 123.434 226.586 123.92C226.896 124.405 227.303 124.821 227.782 125.141C228.777 125.864 229.978 126.249 231.208 126.237C232.154 126.267 233.097 126.098 233.974 125.741C234.851 125.383 235.643 124.845 236.298 124.162L239.602 127.706ZM233.963 115.215C233.138 114.535 232.096 114.173 231.027 114.197C229.876 114.193 228.756 114.564 227.836 115.254C227.369 115.585 226.978 116.01 226.688 116.503C226.398 116.996 226.215 117.544 226.152 118.112H235.393C235.361 117.56 235.22 117.02 234.978 116.523C234.736 116.025 234.398 115.581 233.983 115.215M253.434 131.088C250.941 131.088 248.715 130.032 246.758 127.921C244.791 125.78 243.737 122.956 243.821 120.051C243.821 116.918 244.774 114.353 246.679 112.357C247.523 111.412 248.557 110.656 249.713 110.14C250.87 109.624 252.123 109.358 253.39 109.361C254.568 109.324 255.739 109.546 256.822 110.012C257.905 110.478 258.872 111.177 259.654 112.058V101.721H265.528V130.774H259.654V127.994C258.939 128.964 258.003 129.751 256.924 130.288C255.845 130.826 254.654 131.1 253.448 131.088M249.748 120.281C249.69 121.819 250.239 123.318 251.275 124.456C251.72 124.963 252.268 125.371 252.882 125.65C253.496 125.929 254.163 126.074 254.838 126.076C255.5 126.08 256.154 125.937 256.754 125.657C257.353 125.376 257.883 124.966 258.304 124.456C259.287 123.287 259.796 121.792 259.733 120.266C259.788 118.716 259.28 117.198 258.304 115.993C257.889 115.459 257.358 115.028 256.75 114.733C256.142 114.438 255.475 114.286 254.799 114.29C254.114 114.291 253.438 114.447 252.821 114.745C252.204 115.043 251.663 115.477 251.236 116.013C250.236 117.205 249.713 118.725 249.768 120.281M270.887 107.026C270.303 106.463 269.932 105.715 269.839 104.908C269.745 104.102 269.935 103.289 270.375 102.607C270.816 101.925 271.479 101.418 272.253 101.171C273.026 100.925 273.861 100.955 274.615 101.257C275.368 101.558 275.994 102.112 276.384 102.824C276.774 103.535 276.904 104.361 276.753 105.158C276.602 105.955 276.178 106.675 275.555 107.195C274.931 107.714 274.146 108.001 273.334 108.005C272.881 108.018 272.431 107.937 272.01 107.769C271.589 107.601 271.207 107.348 270.887 107.026ZM276.271 130.774H270.398V109.728H276.271V130.774ZM299.011 130.774H293.49V128.229C292.847 129.117 292.002 129.839 291.025 130.336C290.048 130.833 288.967 131.091 287.871 131.088C285.832 131.154 283.84 130.473 282.267 129.174C281.522 128.54 280.931 127.746 280.537 126.851C280.144 125.955 279.959 124.982 279.996 124.005C279.996 121.849 280.779 120.237 282.345 119.17C283.911 118.103 286.052 117.566 288.767 117.559H293.172V117.427C293.172 115.186 291.984 114.063 289.609 114.06C288.505 114.077 287.413 114.282 286.378 114.667C285.346 115.018 284.375 115.528 283.5 116.179L280.877 112.376C283.627 110.375 286.952 109.319 290.353 109.366C292.914 109.366 295.002 110.006 296.617 111.285C298.233 112.564 299.048 114.585 299.065 117.349L299.011 130.774ZM293.098 122.752V121.734H289.418C287.068 121.734 285.894 122.464 285.894 123.922C285.876 124.26 285.944 124.597 286.091 124.902C286.238 125.206 286.46 125.469 286.736 125.665C287.455 126.113 288.297 126.325 289.144 126.271C290.15 126.28 291.128 125.934 291.904 125.293C292.291 124.991 292.601 124.601 292.809 124.156C293.016 123.711 293.116 123.223 293.098 122.733" fill="black"/>
<path d="M390.587 28.2357V129.412" stroke="black" stroke-width="0.75"/>
<path d="M436.88 36.248C441.728 36.248 443.288 39.032 443.288 41.576C443.288 44.12 441.728 46.904 436.88 46.904H432.512V52.04C432.512 52.64 432.008 53.12 431.408 53.12C430.808 53.12 430.328 52.64 430.328 52.04V37.352C430.328 36.752 430.808 36.248 431.408 36.248H436.88ZM436.664 44.84C440.24 44.84 441.104 43.136 441.104 41.576C441.104 40.016 440.24 38.312 436.664 38.312H432.512V44.84H436.664ZM450.543 40.52C454.239 40.52 456.687 43.088 456.687 46.88C456.687 50.672 454.239 53.24 450.543 53.24C446.823 53.24 444.399 50.672 444.399 46.88C444.399 43.088 446.823 40.52 450.543 40.52ZM450.543 51.248C452.367 51.248 454.503 50.048 454.503 46.856C454.503 43.688 452.367 42.512 450.543 42.512C448.695 42.512 446.583 43.688 446.583 46.856C446.583 50.048 448.695 51.248 450.543 51.248ZM474.552 40.64C475.152 40.64 475.632 41.12 475.632 41.72C475.632 41.864 475.608 41.984 475.56 42.128L472.152 52.112C471.96 52.664 471.408 53.12 470.76 53.12C470.112 53.12 469.56 52.664 469.344 52.088L466.8 44.144L464.256 52.088C464.04 52.664 463.488 53.12 462.84 53.12C462.192 53.12 461.64 52.664 461.448 52.112L458.04 42.128C457.992 41.984 457.968 41.864 457.968 41.72C457.968 41.12 458.448 40.64 459.048 40.64C459.48 40.64 459.912 40.88 460.032 41.288L462.84 50.528L465.624 41.504C465.768 41 466.248 40.64 466.8 40.64C467.352 40.64 467.832 41 467.976 41.504L470.76 50.528L473.568 41.288C473.688 40.88 474.12 40.64 474.552 40.64ZM486.988 50.36C487.492 50.36 487.948 50.744 487.948 51.296C487.948 51.68 487.66 51.992 487.324 52.184C486.268 52.784 485.212 53.24 483.124 53.24C479.212 53.24 476.908 50.912 476.908 46.88C476.908 43.64 478.66 40.52 482.644 40.52C486.34 40.52 488.356 43.376 488.356 46.568C488.356 47.168 487.924 47.648 487.252 47.648H479.116C479.356 49.808 480.724 51.2 483.316 51.2C484.756 51.2 485.668 50.912 486.556 50.456C486.7 50.384 486.82 50.36 486.988 50.36ZM482.644 42.368C481.108 42.368 479.26 43.376 479.116 45.872H486.196C486.052 43.376 484.18 42.368 482.644 42.368ZM496.907 40.52C497.507 40.52 497.963 41 497.963 41.6C497.963 42.224 497.483 42.632 496.859 42.632H496.739C495.155 42.632 493.859 43.496 493.019 44.744V52.04C493.019 52.64 492.515 53.12 491.915 53.12C491.315 53.12 490.835 52.64 490.835 52.04V41.744C490.835 41.144 491.315 40.64 491.915 40.64C492.515 40.64 493.019 41.144 493.019 41.744V42.776C493.883 41.624 495.131 40.52 496.787 40.52H496.907ZM508.997 50.36C509.501 50.36 509.957 50.744 509.957 51.296C509.957 51.68 509.669 51.992 509.333 52.184C508.277 52.784 507.221 53.24 505.133 53.24C501.221 53.24 498.917 50.912 498.917 46.88C498.917 43.64 500.669 40.52 504.653 40.52C508.349 40.52 510.365 43.376 510.365 46.568C510.365 47.168 509.933 47.648 509.261 47.648H501.125C501.365 49.808 502.733 51.2 505.325 51.2C506.765 51.2 507.677 50.912 508.565 50.456C508.709 50.384 508.829 50.36 508.997 50.36ZM504.653 42.368C503.117 42.368 501.269 43.376 501.125 45.872H508.205C508.061 43.376 506.189 42.368 504.653 42.368ZM517.908 40.52C519.588 40.52 520.908 41.192 522.012 42.344V36.464C522.012 35.84 522.492 35.36 523.116 35.36C523.716 35.36 524.196 35.84 524.196 36.464V52.04C524.196 52.64 523.716 53.12 523.116 53.12C522.492 53.12 522.012 52.64 522.012 52.04V51.416C520.908 52.568 519.588 53.24 517.908 53.24C515.004 53.24 512.1 50.96 512.1 46.88C512.1 42.8 515.004 40.52 517.908 40.52ZM518.22 51.2C519.78 51.2 521.076 50.432 522.012 49.4V44.36C521.076 43.328 519.78 42.56 518.22 42.56C515.94 42.56 514.284 44.048 514.284 46.88C514.284 49.712 515.94 51.2 518.22 51.2ZM539.547 40.52C542.451 40.52 545.355 42.8 545.355 46.88C545.355 50.96 542.451 53.24 539.547 53.24C537.867 53.24 536.547 52.568 535.443 51.416V52.04C535.443 52.64 534.963 53.12 534.339 53.12C533.739 53.12 533.259 52.64 533.259 52.04V36.464C533.259 35.84 533.739 35.36 534.339 35.36C534.963 35.36 535.443 35.84 535.443 36.464V42.344C536.547 41.192 537.867 40.52 539.547 40.52ZM539.235 51.2C541.515 51.2 543.171 49.712 543.171 46.88C543.171 44.048 541.515 42.56 539.235 42.56C537.675 42.56 536.379 43.328 535.443 44.36V49.4C536.379 50.432 537.675 51.2 539.235 51.2ZM558.123 41.744C558.123 41.888 558.099 42.032 558.051 42.152L551.499 57.896C551.307 58.328 550.995 58.64 550.491 58.64C549.915 58.64 549.459 58.16 549.459 57.584C549.459 57.464 549.483 57.32 549.531 57.2L551.091 53.192L546.579 42.2C546.531 42.08 546.483 41.912 546.483 41.744C546.483 41.144 546.963 40.64 547.563 40.64C548.019 40.64 548.403 40.928 548.571 41.312L552.267 50.48L556.035 41.36C556.227 40.928 556.563 40.64 557.043 40.64C557.643 40.64 558.123 41.144 558.123 41.744Z" fill="black"/>
<path fill-rule="evenodd" clip-rule="evenodd" d="M431.5 121.5H439C440.105 121.5 441 120.605 441 119.5V111.5C441 111.5 459.079 114.307 465.5 107C470.5 101.31 470.5 94 470.5 94V78C470.5 78 468.889 70.0349 465.5 66.5C461 61.8064 454 61 454 61C454 61 446.345 60.4004 441.5 61C438.011 61.4319 433.243 62.7396 430.907 63.4193C430.067 63.6638 429.5 64.436 429.5 65.3112V119.5C429.5 120.605 430.395 121.5 431.5 121.5ZM441 102C445.686 102.667 448.315 102.813 453 102C457.081 100.887 458.459 99.1863 459 94V78C458.365 73.6269 457.21 71.8552 453 70.5H441V86.25V102Z" fill="black"/>
<path fill-rule="evenodd" clip-rule="evenodd" d="M500 60.5C480.5 60.5 479.5 79 479.5 79V94.5C479.5 94.5 481 112.5 500 112.5C520 112.5 521.5 94.5 521.5 94.5V79C521.5 79 520.5 60.5 500 60.5ZM500.274 71C491.452 71 491 82.0288 491 82.0288V91.2692C491 91.2692 491.679 102 500.274 102C509.321 102 510 91.2692 510 91.2692V82.0288C510 82.0288 509.548 71 500.274 71Z" fill="black"/>
<path fill-rule="evenodd" clip-rule="evenodd" d="M559.5 61V53.5C559.5 52.3954 560.395 51.5 561.5 51.5H569.5C570.605 51.5 571.5 52.3954 571.5 53.5V107.68C571.5 108.48 571.024 109.208 570.281 109.507C566.463 111.043 563.887 111.569 559.5 112H546.5C546.5 112 540.5 112 534.5 106C530.831 102.331 530 93.5 530 93.5V78.5C530 78.5 530.5 69.3937 537 64.5C541.649 61 546.5 61 546.5 61H559.5ZM559.5 70.5V102.5H548.5C543.803 100.98 542.514 98.7661 541.5 93.5V79C542.475 73.696 544.079 71.8933 548.5 70.5H559.5Z" fill="black"/>
<path fill-rule="evenodd" clip-rule="evenodd" d="M591.899 43.5492C596.585 38.8629 604.183 38.8629 608.87 43.5492L623.15 57.8297C623.638 58.3178 624.174 58.7296 624.742 59.0652C618.706 59.6941 614 64.7975 614 71V93C614 98.2021 617.31 102.631 621.939 104.296L608.87 117.365C604.183 122.051 596.585 122.051 591.899 117.365C587.213 112.679 587.213 105.081 591.899 100.394L606.18 86.1139C609.304 82.9897 609.304 77.9244 606.18 74.8002L591.899 60.5197C587.213 55.8334 587.213 48.2354 591.899 43.5492ZM635.774 104.395L648.744 117.365C653.431 122.051 661.029 122.051 665.715 117.365C670.401 112.679 670.401 105.081 665.715 100.394L651.434 86.1139C648.31 82.9897 648.31 77.9244 651.434 74.8002L665.715 60.5197C670.401 55.8334 670.401 48.2354 665.715 43.5491C661.029 38.8628 653.431 38.8628 648.744 43.5491L634.464 57.8297C633.99 58.3032 633.472 58.705 632.923 59.035C639.119 59.5063 644 64.6831 644 71V93C644 98.309 640.552 102.813 635.774 104.395Z" fill="black"/>
<path fill-rule="evenodd" clip-rule="evenodd" d="M628 65H629.5C633.918 65 637.5 68.5817 637.5 73V92C637.5 96.4183 633.918 100 629.5 100H628C623.582 100 620 96.4183 620 92V90H627V86H620V83H627V79H620V76H627V72H620.062C620.554 68.0537 623.92 65 628 65ZM617 73C617 66.9249 621.925 62 628 62H629.5C635.575 62 640.5 66.9249 640.5 73V92C640.5 98.0751 635.575 103 629.5 103H628C621.925 103 617 98.0751 617 92V73Z" fill="black"/>
<path fill-rule="evenodd" clip-rule="evenodd" d="M628 65H629.5C633.918 65 637.5 68.5817 637.5 73V92C637.5 96.4183 633.918 100 629.5 100H628C623.582 100 620 96.4183 620 92V90H627V86H620V83H627V79H620V76H627V72H620.062C620.554 68.0537 623.92 65 628 65ZM617 73C617 66.9249 621.925 62 628 62H629.5C635.575 62 640.5 66.9249 640.5 73V92C640.5 98.0751 635.575 103 629.5 103H628C621.925 103 617 98.0751 617 92V73Z" fill="black"/>
<path d="M618.5 118C617.395 118 616.5 118.895 616.5 120C616.5 121.105 617.395 122 618.5 122V118ZM638 122C639.105 122 640 121.105 640 120C640 118.895 639.105 118 638 118V122ZM626 107.5V120H630V107.5H626ZM628 118H618.5V122H628V118ZM628 122H638V118H628V122Z" fill="black"/>
</svg>
